<?xml version="1.0" encoding="UTF-8" standalone="no"?>
<!-- Generator: Adobe Illustrator 16.0.0, SVG Export Plug-In . SVG Version: 6.00 Build 0)  -->

<svg
   xmlns:dc="http://purl.org/dc/elements/1.1/"
   xmlns:cc="http://creativecommons.org/ns#"
   xmlns:rdf="http://www.w3.org/1999/02/22-rdf-syntax-ns#"
   xmlns:svg="http://www.w3.org/2000/svg"
   xmlns="http://www.w3.org/2000/svg"
   xmlns:sodipodi="http://sodipodi.sourceforge.net/DTD/sodipodi-0.dtd"
   xmlns:inkscape="http://www.inkscape.org/namespaces/inkscape"
   version="1.1"
   id="Layer_1"
   x="0px"
   y="0px"
   width="126"
   height="160"
   viewBox="0 0 126 160"
   enable-background="new 0 0 126 126"
   xml:space="preserve"
   inkscape:version="0.48.4 r9939"
   sodipodi:docname="cover-lighthouse.svg"
   inkscape:export-filename="/home/ales/Programovanie/Jolla/lighthouse/qml/images/cover.png"
   inkscape:export-xdpi="164.28999"
   inkscape:export-ydpi="164.28999"><metadata
     id="metadata19"><rdf:RDF><cc:Work
         rdf:about=""><dc:format>image/svg+xml</dc:format><dc:type
           rdf:resource="http://purl.org/dc/dcmitype/StillImage" /><dc:title></dc:title></cc:Work></rdf:RDF></metadata><defs
     id="defs17" /><sodipodi:namedview
     pagecolor="#ffffff"
     bordercolor="#666666"
     borderopacity="1"
     objecttolerance="10"
     gridtolerance="10"
     guidetolerance="10"
     inkscape:pageopacity="0"
     inkscape:pageshadow="2"
     inkscape:window-width="1920"
     inkscape:window-height="1056"
     id="namedview15"
     showgrid="false"
     inkscape:zoom="5.2976889"
     inkscape:cx="44.895027"
     inkscape:cy="85.574453"
     inkscape:window-x="0"
     inkscape:window-y="24"
     inkscape:window-maximized="1"
     inkscape:current-layer="Layer_1" /><g
     id="g3060"
     style="opacity:0.14999999999999999;fill:#f2f2f2"
     transform="matrix(2.1344102,0,0,2.1344102,-86.018306,-68.455144)"><path
       inkscape:connector-curvature="0"
       id="path11"
       d="m 96.152023,50.982113 c -2.738952,-1.058111 -4.995026,-3.256134 -6.121743,-5.997725 -1.137272,-2.731036 -1.100331,-5.857874 0.08708,-8.578355 0.108186,-0.242759 0.05277,-0.543569 -0.145127,-0.74147 L 84.069497,29.76447 c -0.192624,-0.195263 -0.496072,-0.250675 -0.744108,-0.145128 -2.712566,1.190046 -5.839404,1.229626 -8.573079,0.09235 -2.733675,-1.124079 -4.934336,-3.372236 -6.000363,-6.134936 -0.07388,-0.166237 -0.168876,-0.419551 -0.630645,-0.424828 l -8.351429,-0.0026 c -0.277062,0.0026 -0.530376,0.179431 -0.630646,0.435383 -1.076582,2.760061 -3.256133,4.995025 -6.000363,6.129659 -2.728397,1.131994 -5.852597,1.095053 -8.573078,-0.09499 -0.253314,-0.110825 -0.548846,-0.05805 -0.746747,0.142489 l -5.90801,5.908009 c -0.192624,0.192624 -0.248036,0.485518 -0.137211,0.74147 1.192684,2.720481 1.22171,5.836765 0.09763,8.575717 -1.137272,2.731036 -3.374875,4.92642 -6.137575,5.997725 -0.253313,0.102908 -0.424828,0.353583 -0.424828,0.628006 l -0.0053,8.356707 c 0.0053,0.45913 0.248036,0.554123 0.435382,0.62009 1.409057,0.551485 2.680902,1.374753 3.754845,2.453974 1.023809,1.026448 1.82333,2.216493 2.366898,3.551667 1.134634,2.74159 1.102969,5.863151 -0.08708,8.578355 -0.108186,0.245398 -0.05277,0.546208 0.145127,0.74147 l 5.900094,5.900094 c 0.200539,0.200539 0.496072,0.255952 0.741469,0.147766 2.720482,-1.190046 5.839404,-1.224349 8.578356,-0.08971 2.665069,1.105607 4.797124,3.253495 5.905371,5.894816 0.274423,-0.22165 0.583149,-0.406357 0.923539,-0.54093 0.485517,-0.184708 0.878681,-0.569956 1.066027,-1.031725 0.187347,-0.453853 0.182069,-1.000061 -0.01847,-1.459191 -0.60162,-1.40114 -0.30081,-2.976434 0.75994,-4.026629 l 2.797003,-2.799642 c 1.055473,-1.06075 2.628128,-1.36156 4.00552,-0.773134 0.482879,0.208456 1.031724,0.219011 1.485578,0.02639 0.456492,-0.187347 0.839101,-0.572594 1.015892,-1.037002 0.548846,-1.395863 1.913045,-2.319402 3.395984,-2.324679 h 3.955385 c 0.992145,0.0079 1.90249,0.382609 2.572715,1.047557 l 0.464408,0.469685 0.324558,0.733554 c 0.232204,0.593703 0.596342,0.923538 1.039641,1.105607 0.467047,0.195263 1.015893,0.187347 1.469746,-0.01319 1.314064,-0.564678 2.770616,-0.306087 3.828728,0.612174 l 1.8418,-1.8418 c 0.189985,-0.192624 0.248036,-0.498711 0.13985,-0.754663 -1.187407,-2.712565 -1.22171,-5.836765 -0.09235,-8.57044 1.137272,-2.736313 3.369597,-4.929058 6.132298,-6.003002 0.248036,-0.09763 0.424828,-0.350944 0.427466,-0.622729 l -0.0026,-8.354068 c 0.0053,-0.45913 -0.234843,-0.554123 -0.424828,-0.628006 z M 75.430451,67.275976 c -6.332837,6.330198 -16.634252,6.330198 -22.972367,-0.0079 -6.324921,-6.330199 -6.324921,-16.628976 0.0053,-22.959174 6.324922,-6.32756 16.634253,-6.335476 22.96709,-0.0053 6.335476,6.332838 6.32756,16.63953 0,22.972368 z"
       style="fill:#f2f2f2" /><path
       inkscape:connector-curvature="0"
       id="path13"
       d="m 91.507942,89.11371 c -1.298232,-0.498711 -2.372175,-1.54363 -2.905189,-2.836584 -0.538291,-1.295593 -0.51982,-2.778532 0.04222,-4.066209 0.05541,-0.118741 0.02375,-0.258591 -0.06333,-0.350945 L 85.78464,79.06033 c -0.09499,-0.08971 -0.234842,-0.11874 -0.353583,-0.06597 -1.2824,0.567317 -2.767978,0.577872 -4.058293,0.0475 -1.295593,-0.535653 -2.337873,-1.599042 -2.8445,-2.910467 -0.0343,-0.07916 -0.0818,-0.197901 -0.30081,-0.197901 l -3.958023,-0.0053 c -0.129295,0.0053 -0.253313,0.08708 -0.30081,0.205817 -0.506627,1.311425 -1.543629,2.364259 -2.839222,2.90255 -1.295593,0.535653 -2.773255,0.519821 -4.058293,-0.04222 -0.118741,-0.05277 -0.263868,-0.02903 -0.361499,0.06333 l -2.794365,2.799641 c -0.09499,0.09499 -0.116102,0.234843 -0.06333,0.358861 0.562039,1.285039 0.58051,2.765339 0.04222,4.055655 -0.535653,1.295593 -1.593764,2.34315 -2.905189,2.849777 -0.118741,0.04486 -0.20054,0.166237 -0.20054,0.292893 v 3.960662 c 0,0.22165 0.116102,0.263869 0.205817,0.292894 0.664948,0.263868 1.266567,0.651755 1.778472,1.163659 0.482879,0.482879 0.86021,1.047557 1.118801,1.678202 0.535653,1.295593 0.525098,2.781171 -0.04222,4.066217 -0.05277,0.1161 -0.02375,0.26122 0.07125,0.35358 l 2.794364,2.79436 c 0.09235,0.0924 0.232204,0.12138 0.350945,0.0686 1.287677,-0.56468 2.765339,-0.57787 4.06357,-0.0422 1.295593,0.53565 2.332595,1.5964 2.8445,2.90255 0.03694,0.0897 0.0818,0.20054 0.295532,0.20582 l 3.958023,-0.005 c 0.129296,0 0.248037,-0.0818 0.295533,-0.20054 0.511904,-1.30879 1.548906,-2.36426 2.844499,-2.90255 1.295593,-0.54357 2.773255,-0.5251 4.063571,0.0422 0.118741,0.0501 0.258591,0.029 0.353583,-0.066 l 2.797003,-2.797 c 0.08972,-0.0924 0.118741,-0.23748 0.06333,-0.35358 -0.562039,-1.290324 -0.577872,-2.770624 -0.04222,-4.066217 0.54093,-1.292955 1.596403,-2.332595 2.905189,-2.841861 0.118741,-0.04486 0.197901,-0.168876 0.203179,-0.295532 v -3.958024 c 0,-0.21901 -0.12138,-0.263868 -0.203179,-0.300809 z m -9.821175,7.720784 c -3.000182,3.00282 -7.879105,3.00282 -10.879287,0 -3.000182,-3.002821 -2.997543,-7.876467 0.0026,-10.879287 2.997543,-2.997543 7.873828,-3.008098 10.879287,-0.0026 2.997543,2.997543 2.997543,7.879105 -0.0026,10.881926 z"
       style="fill:#f2f2f2" /></g></svg>