<?xml version="1.0" encoding="UTF-8" standalone="no"?>
<!-- Generator: Adobe Illustrator 16.0.0, SVG Export Plug-In . SVG Version: 6.00 Build 0)  -->

<svg
   xmlns:dc="http://purl.org/dc/elements/1.1/"
   xmlns:cc="http://creativecommons.org/ns#"
   xmlns:rdf="http://www.w3.org/1999/02/22-rdf-syntax-ns#"
   xmlns:svg="http://www.w3.org/2000/svg"
   xmlns="http://www.w3.org/2000/svg"
   xmlns:sodipodi="http://sodipodi.sourceforge.net/DTD/sodipodi-0.dtd"
   xmlns:inkscape="http://www.inkscape.org/namespaces/inkscape"
   version="1.1"
   id="Layer_1"
   x="0px"
   y="0px"
   width="512px"
   height="512px"
   viewBox="0 0 512 512"
   enable-background="new 0 0 512 512"
   xml:space="preserve"
   inkscape:version="0.48.4 r9939"
   sodipodi:docname="half-battery.svg"
   inkscape:export-filename="/home/ales/Programovanie/Jolla/lighthouse/qml/images/cover-image-battery.png"
   inkscape:export-xdpi="16.875"
   inkscape:export-ydpi="16.875"><metadata
     id="metadata15"><rdf:RDF><cc:Work
         rdf:about=""><dc:format>image/svg+xml</dc:format><dc:type
           rdf:resource="http://purl.org/dc/dcmitype/StillImage" /><dc:title></dc:title></cc:Work></rdf:RDF></metadata><defs
     id="defs13" /><sodipodi:namedview
     pagecolor="#ffffff"
     bordercolor="#666666"
     borderopacity="1"
     objecttolerance="10"
     gridtolerance="10"
     guidetolerance="10"
     inkscape:pageopacity="0"
     inkscape:pageshadow="2"
     inkscape:window-width="1920"
     inkscape:window-height="1056"
     id="namedview11"
     showgrid="false"
     inkscape:zoom="0.4609375"
     inkscape:cx="-161.62712"
     inkscape:cy="256"
     inkscape:window-x="0"
     inkscape:window-y="24"
     inkscape:window-maximized="1"
     inkscape:current-layer="Layer_1" /><path
     fill="none"
     d="M391,211v-15c0-24.858-20.146-45-44.996-45H106c-24.853,0-45,20.142-45,45v120c0,24.852,20.147,45,45,45  h240.004c24.85,0,44.996-20.148,44.996-45v-15 M253,301c0,16.566-13.43,30-30,30H121c-16.567,0-30-13.434-30-30v-90  c0-16.567,13.433-30,30-30h102c16.57,0,30,13.433,30,30V301z"
     id="path3" /><path
     fill="none"
     d="M450,301c8.284,0,15.004-6.717,15.004-15v-60c0-8.284-6.72-15-15.004-15h-59"
     id="path5" /><path
     d="M466.004,166.751V166h-31.529c-6.95-34.233-37.191-60-73.475-60H91c-41.419,0-75,33.574-75,75v150c0,41.418,33.581,75,75,75  h270c36.281,0,66.523-25.771,73.475-60H451v-0.76c2.425,0.494,4.933,0.76,7.504,0.76C479.213,346,496,329.204,496,308.5v-105  C496,185.355,483.119,170.225,466.004,166.751z M465.004,286c0,8.283-6.72,15-15.004,15h-59v15c0,24.852-20.146,45-44.996,45H106  c-24.853,0-45-20.148-45-45V196c0-24.858,20.147-45,45-45h240.004C370.855,151,391,171.141,391,196v15h59  c8.284,0,15.004,6.716,15.004,15V286z"
     id="path7"
     style="fill:#f2f2f2" /><path
     d="M223,181H121c-16.567,0-30,13.433-30,30v90c0,16.566,13.433,30,30,30h102c16.57,0,30-13.434,30-30v-90  C253,194.432,239.571,181,223,181z"
     id="path9"
     style="fill:#f2f2f2;opacity:1" /></svg>